<svg width="256" height="256" viewBox="0 0 256 256" fill="none" xmlns="http://www.w3.org/2000/svg">
  <path d="M128 14C92.2 14 63.2 43 63.2 78.8c0 26.2 14.6 38.4 30.7 70.3 8.1 16 14.4 32.9 25.9 32.9s17.8-16.9 25.9-32.9c16.1-31.9 30.7-44.1 30.7-70.3C176.8 43 147.8 14 112 14Z" fill="#00A7E1"/>
  <path d="M176.8 78.8c0-35.8-29-64.8-64.8-64.8h0c-14.4 0-27.7 4.7-38.5 12.7l25.1 25.1c7.8-6.2 17.7-9.9 28.4-9.9 25.1 0 45.4 20.3 45.4 45.4 0 10.7-3.7 20.6-9.9 28.4l14.3 14.3c0-0.1 0-0.2 0-0.3 0.1-0.1 0.1-0.3 0.2-0.4 6.9-14.4 11-24.8 11-40.5Z" fill="#0DB06D"/>
  <path d="M98.8 51.8 73.5 26.7C59.1 37.4 49.6 54.5 49.6 74c0 10.5 2.7 20.4 7.4 29.1l41.8-51.3Z" fill="#F04B3A"/>
  <path d="M57 103.1c8.4 15.6 21.3 26.8 34.5 52.1l22.4-27.5-56.9-24.6Z" fill="#FFC51A"/>
  <circle cx="128" cy="78" r="26" fill="#0A0A0A"/>
  <path d="M43.7 242h168.6c18.8 0 34-15.2 34-34 0-51.6-8.9-88.6-25.7-110.4-5.1-6.6-13-10.5-21.3-10.5H56.7c-8.3 0-16.2 3.9-21.3 10.5C18.6 119.4 9.7 156.4 9.7 208c0 18.8 15.2 34 34 34Z" fill="#FFC51A"/>
  <path d="M100.6 87.1 91.7 155l35-10.5-26.1-57.4Z" fill="#2BA24E"/>
  <path d="M155.4 87.1 129.3 144.5l35 10.5-8.9-67.9Z" fill="#F04B3A"/>
  <path d="M126.9 136.4h2.2l12.2 63.1-13.3 13.3-13.3-13.3 12.2-63.1Z" fill="#00A7E1"/>
  <path d="M114.7 199.5 128 212.8l13.3-13.3-13.3 32.5-13.3-32.5Z" fill="#0DB06D"/>
</svg>
